<svg viewBox="-1 0 483 483.72102" xmlns="http://www.w3.org/2000/svg"><path d="m128.859375 168.554688v145.277343c-.089844 3.433594 2.074219 6.523438 5.332031 7.613281l106.320313 34.324219c.777343.253907 1.585937.386719 2.402343.386719.824219 0 1.644532-.132812 2.425782-.386719l106.203125-34.324219c3.253906-1.089843 5.414062-4.179687 5.316406-7.613281v-145.277343c.09375-3.433594-2.070313-6.523438-5.328125-7.613282l-106.324219-34.320312c-1.578125-.515625-3.277343-.515625-4.855469 0l-106.191406 34.324218c-3.25 1.09375-5.402344 4.183594-5.300781 7.609376zm16 10.988281 89 28.839843v128.460938l-89-28.835938zm105 157.949219v-128.460938l91-29.484375v128.460937zm-7-194.851563 80.367187 25.914063-80.367187 25.921874-80.367187-25.921874zm0 0"/><path d="m.359375 327.195312c-.007813 12.050782 6.429687 23.191407 16.875 29.199219 10.449219 6.007813 23.3125 5.96875 33.726563-.097656l76.160156 76.175781c-6.925782 11.34375-6.527344 25.707032 1.015625 36.652344 7.546875 10.949219 20.824219 16.429688 33.894531 13.996094 13.070312-2.4375 23.480469-12.335938 26.578125-25.265625h106.5c3.09375 12.976562 13.554687 22.90625 26.675781 25.3125s26.425782-3.15625 33.925782-14.191407c7.5-11.03125 7.78125-25.449218.714843-36.765624l75.410157-75.867188c11.390624 6.578125 25.570312 5.925781 36.304687-1.675781 10.734375-7.601563 16.058594-20.757813 13.632813-33.6875-2.421876-12.925781-12.152344-23.257813-24.914063-26.453125v-106.664063c12.804687-3.191406 22.5625-13.570312 24.964844-26.546875 2.398437-12.976562-3-26.160156-13.816407-33.722656-10.8125-7.5625-25.046874-8.109375-36.414062-1.402344l-74.984375-74.972656c6.921875-11.347656 6.515625-25.707031-1.03125-36.652344-7.550781-10.941406-20.828125-16.417968-33.898437-13.976562-13.066407 2.4375-23.476563 12.335937-26.566407 25.265625h-106.5c-3.078125-12.886719-13.425781-22.773438-26.4375-25.257813-13.015625-2.484375-26.277343 2.894532-33.886719 13.742188-7.605468 10.847656-8.144531 25.148437-1.375 36.535156l-75.703124 75.363281c-11.246094-6.667969-25.332032-6.226562-36.136719 1.140625-10.804688 7.363282-16.367188 20.316406-14.269531 33.222656 2.097656 12.902344 11.476562 23.425782 24.054687 26.992188v107.214844c-14.445313 4.167968-24.417969 17.351562-24.5 32.386718zm16 0c.046875-9.605468 7.722656-17.4375 17.328125-17.675781h.351562c9.765626 0 17.679688 7.917969 17.679688 17.679688 0 9.765625-7.917969 17.679687-17.683594 17.679687-9.761718-.003906-17.675781-7.917968-17.675781-17.683594zm139.5 140.5c-9.761719 0-17.679687-7.914062-17.679687-17.679687.003906-9.765625 7.917968-17.679687 17.679687-17.679687 9.765625 0 17.679687 7.917968 17.679687 17.679687-.011718 9.761719-7.917968 17.667969-17.679687 17.679687zm172 0c-9.761719 0-17.679687-7.914062-17.679687-17.679687.003906-9.765625 7.917968-17.679687 17.679687-17.679687 9.765625 0 17.679687 7.917968 17.679687 17.679687-.011718 9.761719-7.917968 17.667969-17.679687 17.679687zm138.5-140.5c0 9.765626-7.914063 17.679688-17.675781 17.679688-9.765625 0-17.679688-7.914062-17.679688-17.679688 0-9.761718 7.914063-17.679687 17.675782-17.679687 9.761718.011719 17.667968 7.921875 17.679687 17.679687zm0-172c0 9.765626-7.914063 17.679688-17.675781 17.679688-9.765625 0-17.679688-7.914062-17.679688-17.679688 0-9.761718 7.914063-17.679687 17.675782-17.679687 9.761718.011719 17.667968 7.921875 17.679687 17.679687zm-138.5-139.179687c9.765625 0 17.679687 7.917969 17.679687 17.679687 0 9.765626-7.914062 17.679688-17.679687 17.679688-9.761719 0-17.679687-7.914062-17.679687-17.679688.015624-9.757812 7.921874-17.667968 17.679687-17.679687zm-139.324219 25.839844h106.652344c2.585938 10.375 9.945312 18.902343 19.828125 22.976562 9.882813 4.078125 21.113281 3.214844 30.261719-2.320312l74.855468 74.84375c-5.753906 9.1875-6.730468 20.585937-2.617187 30.617187 4.109375 10.03125 12.800781 17.464844 23.34375 19.976563v106.492187c-10.59375 2.519532-19.3125 10.015625-23.398437 20.109375-4.085938 10.09375-3.035157 21.542969 2.828124 30.722657l-75.304687 75.757812c-9.148437-5.417969-20.320313-6.191406-30.128906-2.089844-9.808594 4.101563-17.101563 12.597656-19.667969 22.914063h-106.652344c-2.585937-10.367188-9.9375-18.894531-19.816406-22.96875-9.875-4.078125-21.101562-3.226563-30.25 2.300781l-75.980469-76c5.917969-9.335938 6.871094-20.984375 2.554688-31.160156-4.316407-10.175782-13.355469-17.582032-24.183594-19.816406v-106.03125c10.78125-2.222657 19.789063-9.574219 24.132813-19.6875 4.339843-10.113282 3.460937-21.710938-2.355469-31.054688l75.476562-75.136719c9.136719 5.683594 20.441407 6.652344 30.414063 2.609375 9.96875-4.042968 17.40625-12.613281 20.007812-23.054687zm-32.675781-25.839844c9.765625 0 17.679687 7.917969 17.679687 17.679687 0 9.765626-7.914062 17.679688-17.679687 17.679688-9.761719 0-17.679687-7.914062-17.679687-17.679688.015624-9.757812 7.921874-17.667968 17.679687-17.679687zm-139.5 139.179687c0-9.765624 7.917969-17.679687 17.679687-17.679687 9.765626.003906 17.679688 7.917969 17.679688 17.679687 0 9.765626-7.914062 17.679688-17.679688 17.679688-9.757812-.011719-17.667968-7.921875-17.679687-17.679688zm0 0"/></svg>