<?xml version="1.0" encoding="iso-8859-1"?>
<!-- Generator: Adobe Illustrator 19.0.0, SVG Export Plug-In . SVG Version: 6.00 Build 0)  -->
<svg version="1.1" id="Capa_1" xmlns="http://www.w3.org/2000/svg" xmlns:xlink="http://www.w3.org/1999/xlink" x="0px" y="0px"
	 viewBox="0 0 511.999 511.999" style="enable-background:new 0 0 511.999 511.999;" xml:space="preserve">
<g>
	<g>
		<path d="M118.652,369.856c-15.377-8.879-35.115-3.591-43.994,11.789c-8.879,15.379-3.591,35.115,11.789,43.994
			c5.06,2.921,10.588,4.309,16.048,4.309c11.139,0,21.987-5.777,27.946-16.096C139.319,398.471,134.031,378.735,118.652,369.856z
			 M113.12,403.851c-3.366,5.83-10.845,7.834-16.675,4.468c-5.83-3.366-7.834-10.846-4.468-16.674
			c2.259-3.912,6.371-6.102,10.593-6.102c2.069,0,4.166,0.526,6.083,1.633C114.481,390.542,116.486,398.022,113.12,403.851z"/>
	</g>
</g>
<g>
	<g>
		<path d="M467.125,300.881c8.278-7.264,14.241-16.83,17.169-27.757c3.904-14.566,1.924-29.742-5.574-42.727l-42.434-73.499
			c-7.498-12.986-19.649-22.287-34.217-26.19c-10.792-2.892-21.913-2.546-32.234,0.87c8.444-24.91-1.559-53.204-25.187-66.846
			L271.15,22.297c-12.987-7.498-28.161-9.477-42.728-5.574c-14.567,3.903-26.72,13.205-34.217,26.191l-40.442,70.047
			c-2.761,4.783-1.123,10.899,3.66,13.659c1.575,0.909,3.294,1.341,4.991,1.341c3.456,0,6.817-1.793,8.669-5.001l10.517-18.216
			l116.181,67.078l-76.18,43.982l-86.753-50.086c-4.783-2.762-10.899-1.123-13.659,3.66L7.532,366.241
			c-15.109,26.171-6.753,59.554,18.491,75.644c0.529,30.606,25.574,55.345,56.304,55.345H455.67c0.007,0.001-0.006,0.001,0,0.001
			c31.06,0,56.329-25.269,56.329-56.329v-84.867C511.999,328.9,492.71,306.188,467.125,300.881z M25.999,414.399
			c-7.308-11.123-8.241-25.871-1.147-38.158l1.147-1.985V414.399z M191.599,87.426l19.926-34.513
			c4.827-8.36,12.666-14.352,22.073-16.872c9.407-2.521,19.192-1.25,27.553,3.576l73.498,42.434
			c17.347,10.016,23.313,32.278,13.297,49.625l-9.687,16.777l-20.48,11.825L191.599,87.426z M317.509,183.527l67.076,116.18h-87.961
			c0.003,0-0.006,0-0.003,0l-45.086-78.091L317.509,183.527z M234.217,231.616l39.313,68.091h-87.968l-17.321-30.001
			L234.217,231.616z M133.508,188.039l68.093,39.313l-76.181,43.982l-30.002-17.321L133.508,188.039z M162.469,299.707h-46.192
			l34.644-20.001L162.469,299.707z M85.419,271.333l20.002,11.549L75.547,300.13c-2.585,0.312-5.119,0.789-7.585,1.44
			L85.419,271.333z M203.462,477.232H82.326c-20.032,0-36.329-16.297-36.329-36.33v-84.867c0-20.032,16.297-36.33,36.33-36.33
			h121.134V477.232z M299.641,477.232H223.46V319.706h76.181V477.232z M395.82,477.232h-76.18V319.706h76.18V477.232z
			 M334.829,173.528c0.012-0.007,0,0,0.012-0.007l34.502-19.919c8.359-4.827,18.143-6.098,27.552-3.577
			c9.408,2.521,17.247,8.513,22.073,16.872l42.434,73.499c4.827,8.36,6.097,18.145,3.576,27.553
			c-2.521,9.408-8.514,17.246-16.873,22.073l-16.776,9.686h-23.649L334.829,173.528z M492,440.903
			c0,20.032-16.297,36.33-36.33,36.33h-39.851V319.706h39.851c20.032,0,36.33,16.297,36.33,36.33V440.903z"/>
	</g>
</g>
<g>
	<g>
		<path d="M153.067,134.187c-4.781-2.767-10.898-1.133-13.664,3.647l-0.135,0.233c-2.766,4.781-1.133,10.898,3.647,13.663
			c1.577,0.913,3.299,1.346,4.999,1.346c3.453,0,6.811-1.79,8.665-4.993l0.135-0.233
			C159.479,143.071,157.846,136.953,153.067,134.187z"/>
	</g>
</g>
<g>
	<g>
		<path d="M179.139,381.584c-5.523,0-10,4.477-10,10v0.269c0,5.523,4.477,10,10,10s10-4.477,10-10v-0.269
			C189.138,386.061,184.661,381.584,179.139,381.584z"/>
	</g>
</g>
<g>
	<g>
		<path d="M179.139,410.583c-5.523,0-10,4.477-10,10v31.034c0,5.523,4.477,10,10,10s10-4.477,10-10v-31.034
			C189.138,415.06,184.661,410.583,179.139,410.583z"/>
	</g>
</g>
<g>
</g>
<g>
</g>
<g>
</g>
<g>
</g>
<g>
</g>
<g>
</g>
<g>
</g>
<g>
</g>
<g>
</g>
<g>
</g>
<g>
</g>
<g>
</g>
<g>
</g>
<g>
</g>
<g>
</g>
</svg>
