<svg id="_x31_px" enable-background="new 0 0 24 24" viewBox="0 0 24 24" xmlns="http://www.w3.org/2000/svg"><path d="m4.5 3c-.128 0-.256-.049-.354-.146l-1.646-1.647-1.646 1.647c-.195.195-.512.195-.707 0s-.195-.512 0-.707l2-2c.195-.195.512-.195.707 0l2 2c.195.195.195.512 0 .707-.098.097-.226.146-.354.146z"/><path d="m21.5 24c-.128 0-.256-.049-.354-.146-.195-.195-.195-.512 0-.707l1.646-1.646-1.646-1.646c-.195-.195-.195-.512 0-.707s.512-.195.707 0l2 2c.195.195.195.512 0 .707l-2 2c-.097.096-.225.145-.353.145z"/><path d="m2.5 24c-.276 0-.5-.224-.5-.5v-22.75c0-.276.224-.5.5-.5s.5.224.5.5v22.75c0 .276-.224.5-.5.5z"/><path d="m23.25 22h-22.75c-.276 0-.5-.224-.5-.5s.224-.5.5-.5h22.75c.276 0 .5.224.5.5s-.224.5-.5.5z"/><path d="m13 10c-.061 0-.122-.011-.18-.033l-6.5-2.5c-.193-.074-.32-.26-.32-.467s.127-.393.32-.467l6.5-2.5c.115-.044.244-.044.359 0l6.5 2.5c.194.074.321.26.321.467s-.127.393-.32.467l-6.5 2.5c-.058.022-.119.033-.18.033zm-5.107-3 5.107 1.964 5.107-1.964-5.107-1.964z"/><path d="m13 18c-.061 0-.122-.011-.18-.033l-6.5-2.5c-.193-.074-.32-.26-.32-.467v-8c0-.276.224-.5.5-.5s.5.224.5.5v7.657l6 2.308 6-2.308v-7.657c0-.276.224-.5.5-.5s.5.224.5.5v8c0 .207-.127.393-.32.467l-6.5 2.5c-.058.022-.119.033-.18.033z"/><path d="m13 18c-.276 0-.5-.224-.5-.5v-8c0-.276.224-.5.5-.5s.5.224.5.5v8c0 .276-.224.5-.5.5z"/></svg>